<svg width="125" height="125" viewBox="0 0 125 125" fill="none" xmlns="http://www.w3.org/2000/svg">
<g clip-path="url(#clip0_768_3045)">
<path d="M62.5 125C97.0178 125 125 97.0178 125 62.5C125 27.9822 97.0178 0 62.5 0C27.9822 0 0 27.9822 0 62.5C0 97.0178 27.9822 125 62.5 125Z" fill="#FFC536"/>
<path d="M35.6812 90.06C36.2019 87.5283 38.5509 85.7701 41.1529 85.7701H89.961V26.8644C89.961 25.9701 89.236 25.2451 88.3418 25.2451H39.5913C36.5928 25.2451 34.162 27.6759 34.162 30.6744V91.3264C34.162 94.8288 36.8625 97.7124 40.2947 98.0076C40.5336 98.0216 40.7591 98.036 40.998 98.036H89.961V96.6292H40.998C37.6365 96.6292 34.9779 93.549 35.6812 90.0605V90.06Z" fill="#FE4C40"/>
<path d="M77.7278 69.5447H53.1173C52.0589 69.5447 51.2009 70.4027 51.2009 71.461V77.2644C51.2009 78.3228 52.0589 79.1807 53.1173 79.1807H77.7278C78.7862 79.1807 79.6442 78.3228 79.6442 77.2644V71.461C79.6442 70.4027 78.7862 69.5447 77.7278 69.5447Z" fill="#EA241F"/>
<path d="M42.8533 96.6288H40.998C37.6365 96.6288 34.9779 93.5485 35.6812 90.06C36.2019 87.5283 38.5509 85.7701 41.1529 85.7701H42.8533V25.2451H39.5913C36.5928 25.2451 34.162 27.6759 34.162 30.6744V91.3264C34.162 94.8288 36.8625 97.7119 40.2947 98.0076C40.5341 98.0216 40.7591 98.036 40.998 98.036H42.8533V96.6292V96.6288Z" fill="#EA241F"/>
<path d="M35.6812 90.0599C36.2019 87.5282 38.5509 85.77 41.1529 85.77H89.961V84.3633H40.9981C37.2283 84.3633 34.1625 87.4296 34.1625 91.1989C34.1625 94.7296 36.863 97.6551 40.2952 98.007C40.5341 98.021 40.7596 98.0354 40.9985 98.0354H89.9615V96.6287H40.9985C37.637 96.6287 34.9783 93.5484 35.6817 90.0599H35.6812Z" fill="#DB1616"/>
<path d="M89.0952 96.6058C89.1635 96.6154 89.2317 96.6255 89.3101 96.6255H40.9995C37.9803 96.6255 35.5697 94.1904 35.5697 91.1957C35.5697 88.201 37.9048 85.7659 40.9995 85.7659H89.3101C86.2836 85.7659 86.1591 96.1058 89.0952 96.6058Z" fill="#BBC7D7"/>
<path d="M89.1048 96.6249H40.9995C40.0034 96.6249 39.0755 96.3615 38.2654 95.8927C38.1384 95.8144 38.0115 95.7365 37.8846 95.6586C35.7365 92.349 38.2125 87.4653 42.5524 87.4653H87.5524C86.6567 89.7038 86.65 96.1894 89.0952 96.6057C89.0952 96.6121 89.0984 96.6187 89.1048 96.6254V96.6249Z" fill="#EFF2F8"/>
<path d="M50.5422 90.9841V99.7548L47.6206 96.8274L44.699 99.7548V90.9841H50.5422Z" fill="#FFC536"/>
<path d="M44.699 90.9841H50.5418V94.7736C49.9432 94.2409 49.2788 93.7678 48.5124 93.5582C47.4471 93.2707 46.2793 93.5159 45.3336 94.0909C45.112 94.2284 44.8966 94.3841 44.699 94.5582V90.9841Z" fill="#FFB612"/>
<path d="M47.9663 33.6749C45.1481 33.786 42.9471 36.1667 43.0514 38.9927C42.9961 37.5836 42.3697 36.3288 41.4101 35.4417C40.4432 34.548 39.1432 34.022 37.7408 34.0773C40.5658 33.9523 42.7668 31.5783 42.649 28.76H42.6557C42.7668 31.5783 45.1408 33.7792 47.9663 33.6749Z" fill="white"/>
<path d="M90.8374 76.6725C88.0192 76.7835 85.8182 79.1643 85.9225 81.9903C85.8672 80.5811 85.2408 79.3263 84.2812 78.4393C83.3143 77.5455 82.0143 77.0196 80.6119 77.0749C83.4369 76.9499 85.6379 74.5758 85.5201 71.7576H85.5268C85.6379 74.5758 88.0119 76.7768 90.8374 76.6725Z" fill="white"/>
</g>
<defs>
<clipPath id="clip0_768_3045">
<rect width="125" height="125" fill="white"/>
</clipPath>
</defs>
</svg>
